<?xml version="1.0" ?><!DOCTYPE svg  PUBLIC '-//W3C//DTD SVG 1.1//EN'  'http://www.w3.org/Graphics/SVG/1.1/DTD/svg11.dtd'><svg enable-background="new 0 0 512 512" height="512px" id="Layer_1" version="1.1" viewBox="0 0 512 512" width="512px" xml:space="preserve" xmlns="http://www.w3.org/2000/svg" xmlns:xlink="http://www.w3.org/1999/xlink"><g><circle clip-rule="evenodd" cx="256" cy="256" fill="#7295CD" fill-rule="evenodd" r="248.079"/><rect fill="#FCF1D4" height="32.514" width="27.043" x="241.535" y="379.051"/><g><path d="M173.842,280.852c4.765,14.314,1.524,28.255-7.217,31.172c-8.752,2.907-19.725-6.309-24.469-20.592    c-4.765-14.314-1.535-28.265,7.217-31.172C158.115,257.332,169.067,266.559,173.842,280.852z" fill="#FCF1D4"/><path d="M336.271,280.852c-4.765,14.314-1.544,28.255,7.218,31.172c8.762,2.907,19.704-6.309,24.469-20.592    c4.774-14.314,1.544-28.265-7.218-31.172C351.987,257.332,341.035,266.559,336.271,280.852z" fill="#FCF1D4"/></g><path d="M353.754,223.314c0-54.994-44.576-99.561-99.551-99.561c-54.984,0-99.561,44.566-99.561,99.561   c0,7.369,0.858,14.535,2.383,21.461c-0.414,5.33-0.667,10.699-0.667,16.07c0,54.51,44.193,129.258,98.692,129.258   c54.52,0,98.703-74.748,98.703-129.258c0-7.854-0.223-16.363-0.857-25.096C353.4,231.672,353.754,227.533,353.754,223.314z" fill="#FCF1D4"/><path d="M330.84,425.464c-4.341-6.45-8.237-9.488-11.648-10.427c-11.619-7.006-35.937-7.742-64.141-7.742   c-29.838,0-55.377,0.797-66.077,9.004c-2.746,1.555-5.764,4.481-9.034,9.337c-1.969,16.384-4.967,39.883-8.086,63.776   c7.691,2.775,15.565,5.178,23.591,7.197c0.333,0.08,0.687,0.141,1.02,0.222c19.078,4.704,39.005,7.248,59.536,7.248   c20.048,0,39.52-2.442,58.184-6.925c0.404-0.102,0.828-0.182,1.232-0.293c8.015-1.969,15.878-4.33,23.57-7.056   C335.847,465.721,332.809,441.979,330.84,425.464z" fill="#262626"/><path d="M340.188,173.63c8.56,14.516,13.546,31.534,13.566,49.765c0-0.029,0-0.061,0-0.08   c0-54.994-44.576-99.561-99.551-99.561c-54.984,0-99.561,44.566-99.561,99.561c0,0.03,0,0.061,0,0.08   c0.01-18.209,5.007-35.249,13.566-49.765H340.188z" fill="#262626"/><path d="M353.754,223.477c0-0.031,0-0.061,0-0.082c0,0.082,0,0.162,0,0.243   C353.754,223.576,353.754,223.537,353.754,223.477z" fill="#333333"/><path d="M154.643,223.477c0,0.039,0.01,0.08,0.01,0.131c0-0.07-0.01-0.131-0.01-0.213   C154.643,223.426,154.643,223.455,154.643,223.477z" fill="#333333"/><path d="M353.633,224.99c0.021-0.505,0.101-0.879,0.121-1.353c0-0.081,0-0.161,0-0.243   c-0.021-18.23-5.007-35.249-13.566-49.765H168.209c-8.56,14.516-13.557,31.556-13.566,49.765c0,0.082,0.01,0.143,0.01,0.213   c0,0.494,0.071,0.857,0.081,1.383H353.633z" fill="#F7941E"/><path d="M280.873,348.322c0,3.887-11.145,10.912-24.873,10.912c-13.748,0-24.872-7.025-24.872-10.912   c0-3.886,11.124,0,24.872,0C269.729,348.322,280.873,344.437,280.873,348.322z" fill="#FFFFFF"/><path d="M280.853,407.719c-7.995-0.344-16.696-0.424-25.802-0.424c-8.822,0-17.261,0.07-25.063,0.383   c0.434,14.232,11.648,25.64,25.427,25.64C269.193,433.317,280.408,421.932,280.853,407.719z" fill="#F7941E"/><path d="M271.768,477.208c0-7.006-5.139-13.739-16.475-13.739c-6.207,0-12.052,2.211-15.061,4.432l2.039,5.674   c2.474-1.777,6.904-3.816,11.508-3.816c7.188,0,10.104,4.078,10.104,8.682c0,6.824-7.177,9.751-12.851,9.751h-4.34v5.854h4.34   c6.986,0,13.729,2.968,14.748,9.832c2.686-0.101,5.36-0.252,8.025-0.443c-0.989-6.764-6.279-11.215-12.668-12.498v-0.182   C268.225,488.19,271.768,483.143,271.768,477.208z" fill="#F7941E"/></g></svg>